<svg width="90" height="32" viewBox="0 0 90 32" fill="none" xmlns="http://www.w3.org/2000/svg">
<path d="M7.71436 7.71436H10.8572L9.28578 3.71436L7.71436 7.71436Z" fill="#2FABF7"/>
<path d="M46.7144 4.28592C46.4286 4.14306 46.0001 4.14307 45.5715 4.14307H42.7144V6.42878H45.5715C46.0001 6.42878 46.4286 6.42878 46.7144 6.28592C47.0001 6.14307 47.1429 5.71449 47.1429 5.28592C47.2858 4.71449 47.0001 4.42878 46.7144 4.28592Z" fill="#228FE0"/>
<path d="M77.2857 0V1.71429L76.4285 0H69.7143V1.71429L68.8571 0H59.7143C58.1428 0 56.8571 0.285715 55.7143 0.857143V0H49.2857V0.857143C48.5714 0.285715 47.7143 0 46.5714 0H23.5714L22 3.57143L20.4286 0H13.1429V1.71429L12.2857 0H6.14286L3.28571 6.71428L0 14.1429H3.28571H7.28571L8.14285 11.8571H10.1429L11 14.1429H19.2857V12.4286L20 14.1429H24.1428L24.8571 12.4286V14.1429H44.7143V10.4286H45C45.2857 10.4286 45.2857 10.4286 45.2857 10.8571V14H55.5714V13.1429C56.4286 13.5714 57.7143 14 59.4286 14H63.7143L64.5714 11.7143H66.5714L67.4286 14H75.7143V11.8571L77 14H83.7143V0H77.2857ZM29 12H26.5714V4.14286L23.1429 12H21L17.5714 4.14286V12H12.7143L11.7143 9.85714H6.85714L6 12.1429H3.28571L7.57143 2H11.1429L15.1429 11.5714V2H19L22.1429 8.85714L25 2H29V12ZM38.7143 4.14286H33.1428V6H38.5714V8H33.1428V10H38.7143V12.1429H30.7143V2H38.7143V4.14286ZM49.4286 8.28571C49.7143 8.85714 49.8571 9.28571 49.8571 10.1429V12.1429H47.4286V10.8571C47.4286 10.2857 47.4286 9.42857 47 8.85714C46.5714 8.42857 46.1428 8.42857 45.2857 8.42857H42.7143V12.1429H40.2857V2H45.7143C47 2 47.8571 2 48.5714 2.42857C49.2857 2.85714 49.7143 3.57143 49.7143 4.71429C49.7143 6.28571 48.7143 7.14286 48 7.42857C48.7143 7.57143 49.1428 8 49.4286 8.28571ZM53.7143 12H51.2857V1.85714H53.7143V12ZM81.8571 12H78.4285L73.8571 4.42857V12H69L68.1428 9.85714H63.1428L62.2857 12.1429H59.5714C58.4286 12.1429 57 11.8571 56.1428 11C55.2857 10.1429 54.8571 9 54.8571 7.14285C54.8571 5.71428 55.1428 4.28571 56.1428 3.14286C56.8571 2.28571 58.1428 2 59.7143 2H62V4.14286H59.7143C58.8571 4.14286 58.4286 4.28571 57.8571 4.71429C57.4286 5.14286 57.1428 6 57.1428 7C57.1428 8.14286 57.2857 8.85714 57.8571 9.42857C58.2857 9.85714 58.8571 10 59.5714 10H60.5714L63.8571 2.14286H67.4286L71.4285 11.7143V2.14286H75L79.1428 9.14286V2.14286H81.5714V12H81.8571Z" fill="#0571C1"/>
<path d="M64 7.71436H67.2857L65.7143 3.71436L64 7.71436Z" fill="#228FE0"/>
<path d="M39.7143 28.2859V20.1431L36 24.1431L39.7143 28.2859Z" fill="#228FE0"/>
<path d="M24.4287 21.1431V23.0002H29.7144V25.0002H24.4287V27.1431H30.2859L33.0001 24.1431L30.4287 21.1431H24.4287Z" fill="#2FABF7"/>
<path d="M45.1431 21.1431H42.1431V23.7145H45.2859C46.1431 23.7145 46.7145 23.2859 46.7145 22.4288C46.5716 21.5716 46.0002 21.1431 45.1431 21.1431Z" fill="#228FE0"/>
<path d="M89.2855 23.5716V17.1431H87.5712H83.2855C81.9998 17.1431 80.9998 17.4288 80.2855 18.0002V17.1431H73.7141C72.7141 17.1431 71.4283 17.4288 70.8569 18.0002V17.1431H59.2855V18.0002C58.4283 17.2859 56.8569 17.1431 56.1426 17.1431H48.4284V18.0002C47.7141 17.2859 45.9998 17.1431 45.1426 17.1431H36.5712L34.5712 19.2859L32.7141 17.1431H19.8569V31.1431H32.4284L34.4284 29.0002L36.2855 31.1431H43.9998V27.8573H44.9998C45.9998 27.8573 47.2855 27.8573 48.2855 27.4288V31.2859H54.7141V27.5716H54.9998C55.4283 27.5716 55.4283 27.5716 55.4283 28.0002V31.2859H74.8569C76.1426 31.2859 77.4283 31.0002 78.1426 30.4288V31.2859H84.2855C85.5712 31.2859 86.8569 31.1431 87.714 30.5716C89.1426 29.7145 89.9998 28.1431 89.9998 26.2859C89.9998 25.2859 89.714 24.2859 89.2855 23.5716ZM44.9998 25.8574H42.1426V29.2859H37.5712L34.7141 26.0002L31.7141 29.2859H22.2855V19.1431H31.8569L34.7141 22.4288L37.7141 19.1431H45.2855C47.1426 19.1431 49.2855 19.7145 49.2855 22.4288C49.1426 25.2859 47.1426 25.8574 44.9998 25.8574ZM59.2855 25.2859C59.5712 25.7145 59.7141 26.2859 59.7141 27.1431V29.1431H57.2855V27.8573C57.2855 27.2859 57.2855 26.2859 56.8569 25.8574C56.5712 25.4288 55.9998 25.4288 55.1426 25.4288H52.5712V29.1431H50.1426V19.0002H55.5712C56.7141 19.0002 57.7141 19.0002 58.4283 19.4288C59.1426 19.8574 59.7141 20.5716 59.7141 21.7145C59.7141 23.2859 58.7141 24.1431 57.9998 24.4288C58.7141 24.7145 59.1426 25.0002 59.2855 25.2859ZM69.1426 21.1431H63.5712V23.0002H68.9998V25.0002H63.5712V27.0002H69.1426V29.1431H61.1426V19.0002H69.1426V21.1431ZM75.1426 29.1431H70.5712V27.0002H75.1426C75.5712 27.0002 75.8569 27.0002 76.1426 26.7145C76.2855 26.5716 76.4283 26.2859 76.4283 26.0002C76.4283 25.7145 76.2855 25.4288 76.1426 25.2859C75.9998 25.1431 75.7141 25.0002 75.2855 25.0002C72.9998 24.8573 70.2855 25.0002 70.2855 21.8573C70.2855 20.4288 71.1426 18.8574 73.7141 18.8574H78.4283V21.2859H73.9998C73.5712 21.2859 73.2855 21.2859 72.9998 21.4288C72.7141 21.5716 72.7141 21.8574 72.7141 22.1431C72.7141 22.5716 72.9998 22.7145 73.2855 22.8573C73.5712 23.0002 73.8569 23.0002 74.1426 23.0002H75.4283C76.7141 23.0002 77.5712 23.2859 78.1426 23.8574C78.5712 24.2859 78.8569 25.0002 78.8569 26.0002C78.8569 28.1431 77.5712 29.1431 75.1426 29.1431ZM87.4283 28.1431C86.8569 28.7145 85.8569 29.1431 84.4283 29.1431H79.8569V27.0002H84.4283C84.8569 27.0002 85.1426 27.0002 85.4283 26.7145C85.5712 26.5716 85.714 26.2859 85.714 26.0002C85.714 25.7145 85.5712 25.4288 85.4283 25.2859C85.2855 25.1431 84.9998 25.0002 84.5712 25.0002C82.2855 24.8573 79.5712 25.0002 79.5712 21.8573C79.5712 20.4288 80.4283 18.8574 82.9998 18.8574H87.714V21.2859H83.4283C82.9998 21.2859 82.7141 21.2859 82.4283 21.4288C82.1426 21.5716 82.1426 21.8574 82.1426 22.1431C82.1426 22.5716 82.2855 22.7145 82.7141 22.8573C82.9998 23.0002 83.2855 23.0002 83.5712 23.0002H84.8569C86.1426 23.0002 86.9998 23.2859 87.5712 23.8574C87.7141 23.8574 87.714 24.0002 87.714 24.0002C88.1426 24.5716 88.2855 25.2859 88.2855 26.0002C88.2855 26.8573 87.9998 27.5716 87.4283 28.1431Z" fill="#0571C1"/>
<path d="M56.7144 21.4285C56.4286 21.2856 56.0001 21.2856 55.5715 21.2856H52.7144V23.5714H55.5715C56.0001 23.5714 56.4286 23.5714 56.7144 23.4285C57.0001 23.2856 57.1429 22.8571 57.1429 22.4285C57.2858 21.8571 57.0001 21.5714 56.7144 21.4285Z" fill="#228FE0"/>
<path d="M46.7144 4.28592C46.4286 4.14306 46.0001 4.14307 45.5715 4.14307H42.7144V6.42878H45.5715C46.0001 6.42878 46.4286 6.42878 46.7144 6.28592C47.0001 6.14307 47.1429 5.71449 47.1429 5.28592C47.2858 4.71449 47.0001 4.42878 46.7144 4.28592Z" fill="#228FE0"/>
<path d="M64 7.71436H67.2857L65.7143 3.71436L64 7.71436Z" fill="#228FE0"/>
<path d="M39.7143 28.2859V20.1431L36 24.1431L39.7143 28.2859Z" fill="#228FE0"/>
<path d="M45.1431 21.1431H42.1431V23.7145H45.2859C46.1431 23.7145 46.7145 23.2859 46.7145 22.4288C46.5716 21.5716 46.0002 21.1431 45.1431 21.1431Z" fill="#228FE0"/>
<path d="M56.7144 21.4285C56.4286 21.2856 56.0001 21.2856 55.5715 21.2856H52.7144V23.5714H55.5715C56.0001 23.5714 56.4286 23.5714 56.7144 23.4285C57.0001 23.2856 57.1429 22.8571 57.1429 22.4285C57.2858 21.8571 57.0001 21.5714 56.7144 21.4285Z" fill="#228FE0"/>
<path d="M44.1426 28.8573L42.1426 26.7145V29.1431H37.4284L34.5712 25.8574L31.4284 29.1431H21.9998V19.1431H31.5712L34.5712 22.4288L35.9998 20.7145L32.4284 17.1431H19.8569V31.1431H32.4284L34.5712 29.0002L36.4284 31.1431H44.1426V28.8573Z" fill="#2FABF7"/>
<path d="M29.2857 14L27.4286 12H26.5714V11.1429L24.4286 9L23 12H21L17.5714 4.14286V12H12.7143L11.7143 9.85714H6.85714L5.85714 12H3.28571L7.57143 2H11.1429L15.1429 11.5714V2H17.2857L15.2857 0H13.1429V1.71429L12.4286 0H6.14285L3.28571 6.71428L0 14H3.28571H7.42857L8.28571 11.8571H10.2857L11.2857 14H19.2857V12.2857L20 14H24.1428L24.8571 12.2857V14H29.2857Z" fill="#2FABF7"/>
<path d="M22.7144 7.42829L20.4287 5.14258L22.143 8.85686L22.7144 7.42829Z" fill="#2FABF7"/>
<path d="M87.715 30.4286C89.0007 29.5715 89.8578 28.1429 90.0007 26.5715L88.0007 24.5715C88.1435 25.0001 88.2864 25.4286 88.2864 26.0001C88.2864 26.8572 88.0007 27.5715 87.4293 28.1429C86.8578 28.7144 85.8578 29.1429 84.4293 29.1429H79.8578V27.0001H84.4293C84.8578 27.0001 85.1435 27.0001 85.4293 26.7144C85.5721 26.5715 85.715 26.2858 85.715 26.0001C85.715 25.7144 85.5721 25.4286 85.4293 25.2858C85.2864 25.1429 85.0007 25.0001 84.5721 25.0001C82.2864 24.8572 79.5721 25.0001 79.5721 21.8572C79.5721 20.4286 80.4293 19.1429 82.5721 18.8572L81.0007 17.2858C80.715 17.4286 80.5721 17.5715 80.4293 17.5715V16.7144H73.8578C72.8578 16.7144 71.5721 17.0001 71.0007 17.5715V16.7144H59.2864V17.5715C58.4293 16.8572 56.8578 16.7144 56.1435 16.7144H48.4293V17.5715C47.715 16.8572 46.0007 16.7144 45.1436 16.7144H36.5721L34.5721 18.8572L32.715 16.7144H31.1436L35.4293 21.0001L37.5721 18.7144H45.1436C47.0007 18.7144 49.1436 19.2858 49.1436 22.0001C49.1436 24.8572 47.1436 25.4286 45.0007 25.4286H42.1436V27.5715L44.2864 29.7143V27.5715H45.0007C46.0007 27.5715 47.2864 27.5715 48.2864 27.1429V31.0001H54.715V27.2858H55.0007C55.4293 27.2858 55.4293 27.2858 55.4293 27.7144V31.0001H74.8578C76.1435 31.0001 77.4293 30.7144 78.1435 30.1429V31.0001H84.2864C85.4293 31.1429 86.715 31.0001 87.715 30.4286ZM59.2864 25.2858C59.5721 25.7144 59.715 26.2858 59.715 27.1429V29.1429H57.2864V27.8572C57.2864 27.2858 57.2864 26.2858 56.8578 25.8572C56.5721 25.4286 56.0007 25.4286 55.1435 25.4286H52.5721V29.1429H50.1435V19.0001H55.5721C56.715 19.0001 57.715 19.0001 58.4293 19.4286C59.1435 19.8572 59.715 20.5715 59.715 21.7144C59.715 23.2858 58.715 24.1429 58.0007 24.4286C58.715 24.7144 59.1435 25.0001 59.2864 25.2858ZM69.1435 21.1429H63.5721V23.0001H69.0007V25.0001H63.5721V27.0001H69.1435V29.1429H61.1435V19.0001H69.1435V21.1429ZM75.1435 29.1429H70.5721V27.0001H75.1435C75.5721 27.0001 75.8578 27.0001 76.1435 26.7144C76.2864 26.5715 76.4293 26.2858 76.4293 26.0001C76.4293 25.7144 76.2864 25.4286 76.1435 25.2858C76.0007 25.1429 75.715 25.0001 75.2864 25.0001C73.0007 24.8572 70.2864 25.0001 70.2864 21.8572C70.2864 20.4286 71.1435 18.8572 73.715 18.8572H78.4293V21.2858H74.0007C73.5721 21.2858 73.2864 21.2858 73.0007 21.4286C72.715 21.5715 72.715 21.8572 72.715 22.1429C72.715 22.5715 73.0007 22.7144 73.2864 22.8572C73.5721 23.0001 73.8578 23.0001 74.1435 23.0001H75.4293C76.715 23.0001 77.5721 23.2858 78.1435 23.8572C78.5721 24.2858 78.8578 25.0001 78.8578 26.0001C78.8578 28.1429 77.5721 29.1429 75.1435 29.1429Z" fill="#228FE0"/>
<path d="M82.0005 22.1428C82.0005 22.5714 82.1433 22.7142 82.5719 22.8571C82.8576 22.9999 83.1433 22.9999 83.4291 22.9999H84.7148C85.5719 22.9999 86.1433 23.1428 86.7148 23.4285L84.5719 21.2856H83.2862C82.8576 21.2856 82.5719 21.2856 82.2862 21.4285C82.1433 21.5714 82.0005 21.8571 82.0005 22.1428Z" fill="#228FE0"/>
<path d="M77.0005 13.5713L77.2862 13.9999H77.4291L77.0005 13.5713Z" fill="#228FE0"/>
<path d="M69.1436 5.71436L71.5721 11.5715V8.14293L69.1436 5.71436Z" fill="#228FE0"/>
<path d="M44.7145 10.4288H45.0002C45.2859 10.4288 45.2859 10.4288 45.2859 10.8573V14.0002H55.5716V13.1431C56.4288 13.5716 57.7145 14.0002 59.4288 14.0002H63.7145L64.5716 11.7145H66.5716L67.4288 14.0002H75.7145V12.5716L73.7145 10.5716V12.1431H68.8573L68.143 9.85735H63.1431L62.2859 12.1431H59.5716C58.4288 12.1431 57.0002 11.8573 56.143 11.0002C55.2859 10.1431 54.8573 9.00021 54.8573 7.14306C54.8573 5.71449 55.143 4.28592 56.143 3.14307C56.8573 2.28592 58.143 2.00021 59.7145 2.00021H62.0002V4.14307H59.7145C58.8573 4.14307 58.4288 4.28592 57.8573 4.71449C57.4288 5.14307 57.1431 6.00021 57.1431 7.00021C57.1431 8.14306 57.2859 8.85735 57.8573 9.42878C58.2859 9.85735 58.8573 10.0002 59.5716 10.0002H60.5716L63.8573 2.14307H65.2859L63.2859 0.143066H59.5716C58.0002 0.143066 56.7145 0.428781 55.5716 1.00021V0.143066H49.2859V1.00021C48.5716 0.428781 47.7145 0.143066 46.5716 0.143066H23.5716L22.0002 3.71449L20.4288 0.143066H14.1431L16.1431 2.14307H19.0002L21.4288 7.42878L22.2859 8.28592L24.8573 2.00021H28.8573V12.1431H26.4288V4.28592L24.0002 10.0002L28.1431 14.1431H44.5716L44.7145 10.4288ZM51.2859 2.00021H53.7145V12.1431H51.2859V2.00021ZM38.7145 4.14307H33.1431V6.00021H38.5716V8.00021H33.1431V10.0002H38.7145V12.1431H30.7145V2.00021H38.7145V4.14307ZM42.7145 12.0002H40.2859V1.85735H45.7145C47.0002 1.85735 47.8573 1.85735 48.5716 2.28592C49.2859 2.71449 49.7145 3.42878 49.7145 4.57164C49.7145 6.14306 48.7145 7.00021 48.0002 7.28592C48.5716 7.42878 49.0002 7.85735 49.1431 8.14306C49.4288 8.71449 49.5716 9.14306 49.5716 10.0002V12.0002H47.1431V10.7145C47.1431 10.1431 47.1431 9.28592 46.7145 8.71449C46.5716 8.42878 46.1431 8.42878 45.2859 8.42878H42.7145V12.0002Z" fill="#228FE0"/>
</svg>
