<svg width="50" height="50" viewBox="0 0 50 50" fill="none" xmlns="http://www.w3.org/2000/svg">
<path d="M37.9912 8.30475C36.8905 7.20688 35.2945 6.84985 33.8617 7.38099C33.4566 7.52284 33.1615 7.89081 33.0981 8.33333L32.7799 10.6238C32.2974 14.0834 29.4719 16.6527 26.1346 16.6667H21.5893C21.0677 16.6668 20.6132 17.0389 20.487 17.569L17.078 31.8547C16.9261 32.4926 17.2966 33.1387 17.9055 33.2979C17.9953 33.3213 18.0876 33.3333 18.1802 33.3333H23.8618C24.3834 33.3331 24.8378 32.961 24.9641 32.4309L27.0209 23.8095H31.4525C34.8545 23.8213 37.8222 21.3921 38.6341 17.931L39.4727 14.4095C40.0631 12.2435 39.4972 9.91234 37.9912 8.30475Z" fill="#03A9F4"/>
<path d="M1.13605 47.6184C0.508472 47.6183 -0.000212995 47.0852 6.6906e-08 46.4277C6.6906e-08 46.3307 0.0113989 46.234 0.0337704 46.14L1.17014 41.4019V41.3519L2.3065 36.6162C2.43274 36.0861 2.8872 35.714 3.40878 35.7139H6.2996C7.86859 35.7135 9.14067 37.0457 9.1411 38.6894C9.1411 38.9328 9.11265 39.1754 9.05641 39.4115L8.77229 40.602C8.45621 41.9274 7.31953 42.857 6.01559 42.8568H3.16099L2.24056 46.7163C2.11411 47.2471 1.65837 47.6194 1.13605 47.6184ZM3.72911 40.4756H6.01537C6.27606 40.4748 6.50275 40.2883 6.56539 40.0232L6.84951 38.8327C6.92739 38.5156 6.745 38.1924 6.44235 38.111C6.39569 38.0983 6.34775 38.0921 6.29949 38.0923H4.29724L3.72911 40.4756Z" fill="#283593"/>
<path d="M13.2873 47.6185H11.6692C9.92956 47.6189 8.51898 46.1418 8.51855 44.3193C8.51845 44.0493 8.55009 43.7803 8.61251 43.5185L8.76251 42.8851C9.09883 41.4637 10.3191 40.4675 11.7169 40.4732H13.335C15.0747 40.4763 16.4825 41.9563 16.4795 43.7789C16.4791 44.0475 16.4473 44.315 16.385 44.5755L16.235 45.2089C15.8984 46.6268 14.6819 47.6211 13.2873 47.6185ZM10.8192 44.097C10.7024 44.5897 10.989 45.0881 11.4592 45.2104C11.5279 45.2283 11.5984 45.2373 11.6692 45.2376H13.2873C13.6377 45.2386 13.9434 44.989 14.0282 44.6328L14.1782 43.9994C14.295 43.5068 14.0084 43.0083 13.5382 42.886C13.4695 42.8681 13.3991 42.8591 13.3282 42.8589H11.7101C11.3597 42.8579 11.054 43.1074 10.9692 43.4637L10.8192 44.097Z" fill="#283593"/>
<path d="M14.7718 47.6186C14.1442 47.6184 13.6356 47.0852 13.6357 46.4278C13.6357 46.3308 13.6471 46.2341 13.6695 46.14L14.8059 41.3781C14.9578 40.7397 15.5748 40.3511 16.1843 40.5103C16.7936 40.6694 17.1646 41.3158 17.0127 41.9543L15.8763 46.7163C15.7498 47.2473 15.2941 47.6196 14.7718 47.6186Z" fill="#283593"/>
<path d="M28.4085 47.6185C27.7809 47.6183 27.2724 47.0852 27.2725 46.4277C27.2725 46.3307 27.2839 46.234 27.3062 46.14L28.4426 41.4019V41.3519L29.579 36.6162C29.7052 36.0861 30.1597 35.714 30.6812 35.7139H33.5721C35.141 35.7135 36.4131 37.0457 36.4136 38.6894C36.4136 38.9328 36.3851 39.1754 36.3289 39.4115L36.0447 40.602C35.7287 41.9274 34.592 42.857 33.288 42.8568H30.4336L29.5131 46.7163C29.3866 47.2472 28.9308 47.6195 28.4085 47.6185ZM31.0016 40.4757H33.2902C33.5509 40.4749 33.7776 40.2884 33.8402 40.0233L34.1243 38.8328C34.2021 38.5158 34.0198 38.1925 33.7172 38.1111C33.6705 38.0985 33.6224 38.0922 33.5743 38.0924H31.5698L31.0016 40.4757Z" fill="#03A9F4"/>
<path d="M40.5598 47.6185H38.9417C37.202 47.6189 35.7914 46.1418 35.791 44.3193C35.7909 44.0493 35.8226 43.7803 35.885 43.5185L36.035 42.8851C36.3713 41.4637 37.5916 40.4675 38.9894 40.4732H40.6075C42.3471 40.4727 43.7577 41.9498 43.7581 43.7724C43.7583 44.0424 43.7266 44.3113 43.6642 44.5732L43.5142 45.2065C43.1779 46.6279 41.9576 47.6242 40.5598 47.6185ZM38.0917 44.097C37.9749 44.5897 38.2615 45.0881 38.7317 45.2104C38.8004 45.2283 38.8708 45.2373 38.9417 45.2376H40.5598C40.9101 45.2386 41.2159 44.989 41.3007 44.6328L41.4507 43.9994C41.5674 43.5068 41.2809 43.0083 40.8106 42.886C40.7419 42.8681 40.6715 42.8591 40.6007 42.8589H38.9826C38.6322 42.8579 38.3265 43.1074 38.2417 43.4637L38.0917 44.097Z" fill="#03A9F4"/>
<path d="M42.0442 47.6186C41.4167 47.6184 40.9081 47.0852 40.9082 46.4278C40.9082 46.3308 40.9196 46.2341 40.942 46.14L42.0783 41.3781C42.2303 40.7397 42.8473 40.3511 43.4567 40.5103C44.0661 40.6694 44.437 41.3158 44.2851 41.9543L43.1488 46.7163C43.0223 47.2473 42.5666 47.6196 42.0442 47.6186Z" fill="#03A9F4"/>
<path d="M21.5899 46.4285C21.2098 46.4282 20.8551 46.229 20.6445 45.8976L18.3719 42.3261C18.0235 41.7792 18.1644 41.0399 18.6867 40.6749C19.2089 40.31 19.9144 40.4576 20.2628 41.0047L22.5354 44.5761C22.8843 45.1227 22.7443 45.862 22.2227 46.2276C22.0355 46.3587 21.8152 46.4286 21.5899 46.4285Z" fill="#283593"/>
<path d="M19.3176 50.0002C18.69 49.9999 18.1814 49.4667 18.1816 48.8092C18.1817 48.531 18.2749 48.2616 18.4449 48.0477L24.1265 40.9049C24.5288 40.4 25.2456 40.3322 25.7275 40.7537C26.2095 41.1751 26.2742 41.9261 25.8719 42.431L20.1903 49.5738C19.9741 49.8445 19.6544 50.0006 19.3176 50.0002Z" fill="#283593"/>
<path d="M46.5892 47.6192C45.9616 47.619 45.453 47.0858 45.4531 46.4284C45.4531 46.3314 45.4645 46.2347 45.4869 46.1406L47.7595 36.6169C47.9114 35.9785 48.5285 35.5899 49.1379 35.749C49.7473 35.9082 50.1182 36.5546 49.9663 37.1931L47.6937 46.7169C47.5673 47.2479 47.1116 47.6202 46.5892 47.6192Z" fill="#03A9F4"/>
<path d="M34.2391 2.05948C33.1473 0.749331 31.5676 -0.00167131 29.9074 2.79292e-06H17.0442C16.4946 2.79292e-06 16.0238 0.412055 15.926 0.978572L11.3807 27.1689C11.2689 27.8159 11.6791 28.4352 12.2966 28.5523C12.3633 28.5649 12.4311 28.5712 12.4988 28.5712H19.3168C19.8384 28.5711 20.2928 28.199 20.4191 27.6689L22.4781 19.0475H26.1348C30.6046 19.0291 34.3886 15.5863 35.0322 10.9523L35.6004 6.88324C35.8346 5.14474 35.3381 3.38515 34.2391 2.05948Z" fill="#283593"/>
</svg>
