<svg width="90" height="28" viewBox="0 0 90 28" fill="none" xmlns="http://www.w3.org/2000/svg">
<path d="M33.0005 26.5712L37.5719 0.856934H44.7148L40.2862 26.5712H33.0005Z" fill="#3C58BF"/>
<path d="M33.0005 26.5712L38.8576 0.856934H44.7148L40.2862 26.5712H33.0005Z" fill="#293688"/>
<path d="M66.1428 1.14286C64.7142 0.571427 62.4285 0 59.5714 0C52.4285 0 47.2856 3.57143 47.2856 8.71428C47.2856 12.5714 50.8571 14.5714 53.7142 15.8571C56.5714 17.1429 57.4285 18 57.4285 19.1429C57.4285 20.8571 55.1428 21.7143 53.1428 21.7143C50.2856 21.7143 48.7142 21.2857 46.2856 20.2857L45.2856 19.8571L44.2856 25.7143C45.9999 26.4286 49.1428 27.1429 52.4285 27.1429C59.9999 27.1429 64.9999 23.5714 64.9999 18.1429C64.9999 15.1429 63.1428 12.8571 58.8571 11C56.2856 9.71428 54.7142 9 54.7142 7.71428C54.7142 6.57143 55.9999 5.42857 58.8571 5.42857C61.2856 5.42857 62.9999 5.85714 64.2856 6.42857L64.9999 6.71428L66.1428 1.14286Z" fill="#3C58BF"/>
<path d="M66.1428 1.14286C64.7142 0.571427 62.4285 0 59.5714 0C52.4285 0 48.5714 3.57143 48.5714 8.71428C48.5714 12.5714 50.8571 14.5714 53.7142 15.8571C56.5714 17.1429 57.4285 18 57.4285 19.1429C57.4285 20.8571 55.1428 21.7143 53.1428 21.7143C50.2856 21.7143 48.7142 21.2857 46.2856 20.2857L45.2856 19.8571L44.2856 25.7143C45.9999 26.4286 49.1428 27.1429 52.4285 27.1429C59.9999 27.1429 64.9999 23.5714 64.9999 18.1429C64.9999 15.1429 63.1428 12.8571 58.8571 11C56.2856 9.71428 54.7142 9 54.7142 7.71428C54.7142 6.57143 55.9999 5.42857 58.8571 5.42857C61.2856 5.42857 62.9999 5.85714 64.2856 6.42857L64.9999 6.71428L66.1428 1.14286Z" fill="#293688"/>
<path d="M78.4286 0.856934C76.7143 0.856934 75.4286 0.999792 74.7143 2.71408L64 26.5712H71.7143L73.1429 22.2855H82.2857L83.1429 26.5712H90L84 0.856934H78.4286V0.856934ZM75.1429 17.9998C75.5714 16.7141 78 10.4284 78 10.4284C78 10.4284 78.5714 8.85694 79 7.85694L79.4286 10.2855C79.4286 10.2855 80.8571 16.7141 81.1429 18.1427H75.1429V17.9998Z" fill="#3C58BF"/>
<path d="M80.1429 0.856934C78.4286 0.856934 77.1429 0.999792 76.4286 2.71408L64 26.5712H71.7143L73.1429 22.2855H82.2857L83.1429 26.5712H90L84 0.856934H80.1429V0.856934ZM75.1429 17.9998C75.7143 16.5712 78 10.4284 78 10.4284C78 10.4284 78.5714 8.85694 79 7.85694L79.4286 10.2855C79.4286 10.2855 80.8571 16.7141 81.1429 18.1427H75.1429V17.9998Z" fill="#293688"/>
<path d="M19.8574 18.8571L19.1431 15.1429C17.8574 10.8571 13.7145 6.14286 9.14307 3.85714L15.5716 26.7143H23.2859L34.8574 1H27.1431L19.8574 18.8571Z" fill="#3C58BF"/>
<path d="M19.8574 18.8571L19.1431 15.1429C17.8574 10.8571 13.7145 6.14286 9.14307 3.85714L15.5716 26.7143H23.2859L34.8574 1H28.5716L19.8574 18.8571Z" fill="#293688"/>
<path d="M0 0.856934L1.28571 1.14265C10.4286 3.28551 16.7143 8.71408 19.1429 15.1426L16.5714 2.99979C16.1429 1.2855 14.8571 0.856934 13.2857 0.856934H0V0.856934Z" fill="#FFBC00"/>
<path d="M0 0.856934C9.14286 2.99979 16.7143 8.57122 19.1429 14.9998L16.7143 4.85693C16.2857 3.14265 14.8571 2.14265 13.2857 2.14265L0 0.856934Z" fill="#F7981D"/>
<path d="M0 0.856934C9.14286 2.99979 16.7143 8.57122 19.1429 14.9998L17.4286 9.42836C17 7.71408 16.4286 5.99979 14.4286 5.28551L0 0.856934Z" fill="#ED7C00"/>
<path d="M26.9999 18.0001L22.1428 13.1429L19.8571 18.5715L19.2856 15.0001C17.9999 10.7144 13.8571 6.00007 9.28564 3.71436L15.7142 26.5715H23.4285L26.9999 18.0001Z" fill="#051244"/>
<path d="M40.2867 26.5714L34.1438 20.2856L33.001 26.5714H40.2867Z" fill="#051244"/>
<path d="M56.7147 17.7144C57.2861 18.2858 57.5718 18.7144 57.429 19.2858C57.429 21.0001 55.1433 21.8572 53.1433 21.8572C50.2861 21.8572 48.7147 21.4286 46.2861 20.4286L45.2861 20.0001L44.2861 25.8572C46.0004 26.5715 49.1433 27.2858 52.429 27.2858C57.0004 27.2858 60.7147 26.0001 62.8576 23.7144L56.7147 17.7144Z" fill="#051244"/>
<path d="M65.001 26.5717H71.7153L73.1438 22.286H82.2867L83.1438 26.5717H90.001L87.5724 16.1431L79.001 7.85742L79.4295 10.1431C79.4295 10.1431 80.8581 16.5717 81.1438 18.0003H75.1438C75.7153 16.5717 78.001 10.4288 78.001 10.4288C78.001 10.4288 78.5724 8.85742 79.001 7.85742" fill="#051244"/>
</svg>
