<svg width="58" height="40" viewBox="0 0 58 40" fill="none" xmlns="http://www.w3.org/2000/svg">
<path d="M54.6645 3.78227C53.116 1.02764 51.4353 0.520955 48.0135 0.328273C44.5951 0.0963409 35.9994 0 28.5526 0C21.0915 0 12.4922 0.0963412 9.07745 0.324705C5.6627 0.520955 3.97852 1.02407 2.41566 3.78227C0.820682 6.53334 0 11.2719 0 19.6143C0 19.6214 0 19.625 0 19.625C0 19.6321 0 19.6357 0 19.6357V19.6428C0 27.9496 0.820682 32.7238 2.41566 35.4463C3.97852 38.201 5.65914 38.7005 9.07389 38.9324C12.4922 39.1323 21.0915 39.25 28.5526 39.25C35.9994 39.25 44.5951 39.1322 48.017 38.936C51.4389 38.7041 53.1195 38.2045 54.6681 35.4499C56.2774 32.7274 57.0909 27.9531 57.0909 19.6464C57.0909 19.6464 57.0909 19.6357 57.0909 19.6286C57.0909 19.6286 57.0909 19.6214 57.0909 19.6179C57.0909 11.2719 56.2774 6.53334 54.6645 3.78227ZM21.4091 30.3295V8.92045L39.25 19.625L21.4091 30.3295Z" fill="white"/>
</svg>
